<svg id="b519c03d-41bc-46a0-a6cb-6d9ae91e17d5" data-name="Capa 1" xmlns="http://www.w3.org/2000/svg" viewBox="0 0 250 108.47"><defs><style>.ab25665e-4b12-46fb-a11d-299804e7ce0e{fill:#fff;}</style></defs><path class="ab25665e-4b12-46fb-a11d-299804e7ce0e" d="M81.69,58.55c.15,0,.27-.15.36-.44l3.58-13.22a.63.63,0,0,1,.67-.5h2a.53.53,0,0,1,.45.18.54.54,0,0,1,0,.49L83.33,64.24a.6.6,0,0,1-.64.5H80.75a.61.61,0,0,1-.64-.5l-3.83-13.3c-.08-.25-.2-.38-.36-.38s-.29.13-.36.38l-3.84,13.3a.58.58,0,0,1-.63.5h-2a.62.62,0,0,1-.64-.5L63,45.06a.58.58,0,0,1,0-.19.45.45,0,0,1,.14-.35.57.57,0,0,1,.39-.13h2.05a.61.61,0,0,1,.67.5l3.58,13.22c.09.29.21.44.36.44s.29-.14.36-.42l3.75-13.24a.62.62,0,0,1,.64-.5h2a.59.59,0,0,1,.64.5l3.75,13.24Q81.47,58.55,81.69,58.55Z"/><path class="ab25665e-4b12-46fb-a11d-299804e7ce0e" d="M92.18,46.78a1.74,1.74,0,0,1-.52-1.28,1.72,1.72,0,0,1,.52-1.27,1.81,1.81,0,0,1,2.56,0,1.72,1.72,0,0,1,.52,1.27,1.8,1.8,0,0,1-3.08,1.28Zm2.6,17.81a.59.59,0,0,1-.43.15H92.54a.61.61,0,0,1-.43-.15.59.59,0,0,1-.15-.43V50.78a.58.58,0,0,1,.15-.43.61.61,0,0,1,.43-.15h1.81a.59.59,0,0,1,.43.15.58.58,0,0,1,.15.43V64.16A.59.59,0,0,1,94.78,64.59Z"/><path class="ab25665e-4b12-46fb-a11d-299804e7ce0e" d="M102.52,64.59a.58.58,0,0,1-.43.15h-1.8a.58.58,0,0,1-.43-.15.59.59,0,0,1-.15-.43V45a.58.58,0,0,1,.15-.43.54.54,0,0,1,.43-.16h1.8a.54.54,0,0,1,.43.16.58.58,0,0,1,.16.43V64.16A.6.6,0,0,1,102.52,64.59Z"/><path class="ab25665e-4b12-46fb-a11d-299804e7ce0e" d="M118.17,59.36a1.27,1.27,0,0,1,.27,0l1.47.56a.51.51,0,0,1,.36.72,6.86,6.86,0,0,1-2.3,3.18,8.26,8.26,0,0,1-8.72,0,6.57,6.57,0,0,1-2.22-3,9.61,9.61,0,0,1,0-6.74,6.57,6.57,0,0,1,2.22-3,8.2,8.2,0,0,1,8.72,0,6.76,6.76,0,0,1,2.3,3.18.65.65,0,0,1,0,.22.54.54,0,0,1-.39.5l-1.47.55-.27.06q-.32,0-.45-.42a4,4,0,0,0-4.08-2.77,3.86,3.86,0,0,0-3.33,1.47,6.57,6.57,0,0,0,0,7.22,3.86,3.86,0,0,0,3.33,1.47,4.26,4.26,0,0,0,2.6-.75,4.32,4.32,0,0,0,1.48-2C117.81,59.49,118,59.36,118.17,59.36Z"/><path class="ab25665e-4b12-46fb-a11d-299804e7ce0e" d="M125.38,63.84a6.57,6.57,0,0,1-2.22-3,9.61,9.61,0,0,1,0-6.74,6.57,6.57,0,0,1,2.22-3,8.17,8.17,0,0,1,8.75,0,6.67,6.67,0,0,1,2.23,3,9.33,9.33,0,0,1,0,6.74,6.67,6.67,0,0,1-2.23,3,8.23,8.23,0,0,1-8.75,0Zm7.72-2.76a6.57,6.57,0,0,0,0-7.22,4.51,4.51,0,0,0-6.66,0,6.52,6.52,0,0,0,0,7.22,4.51,4.51,0,0,0,6.66,0Z"/><path class="ab25665e-4b12-46fb-a11d-299804e7ce0e" d="M147,57.41a.78.78,0,0,0,.11.42l4.19,6.22a.52.52,0,0,1,.11.33c0,.24-.17.36-.5.36H149a.81.81,0,0,1-.7-.36l-2.63-3.94a.48.48,0,0,0-.42-.28.53.53,0,0,0-.42.28l-2.61,3.91a.76.76,0,0,1-.69.39h-1.94a.52.52,0,0,1-.35-.1.28.28,0,0,1-.12-.23.68.68,0,0,1,.11-.36l4.1-6.22a.75.75,0,0,0,.14-.42.7.7,0,0,0-.14-.41l-4.1-6.11a.47.47,0,0,1-.11-.33c0-.24.16-.36.5-.36h1.91a.78.78,0,0,1,.69.36l2.59,3.83a.57.57,0,0,0,.41.27.54.54,0,0,0,.42-.27l2.53-3.81a.76.76,0,0,1,.69-.38h1.94c.34,0,.5.12.5.36a.52.52,0,0,1-.11.33l-4,6.11A.74.74,0,0,0,147,57.41Z"/><path class="ab25665e-4b12-46fb-a11d-299804e7ce0e" d="M181.66,44.55a.54.54,0,0,1,.16.43V64.16a.56.56,0,0,1-.16.43.58.58,0,0,1-.43.15h-1.72a.52.52,0,0,1-.58-.58V51.06a.67.67,0,0,0-.08-.35.26.26,0,0,0-.2-.13q-.22,0-.39.36L172.68,64.3a.67.67,0,0,1-.69.44h-1.28a.67.67,0,0,1-.69-.44l-5.61-13.38q-.16-.36-.36-.36a.25.25,0,0,0-.22.12.65.65,0,0,0-.08.38v13.1a.6.6,0,0,1-.16.43.58.58,0,0,1-.43.15h-1.72a.52.52,0,0,1-.58-.58V45a.58.58,0,0,1,.15-.43.56.56,0,0,1,.43-.16h2.89a.66.66,0,0,1,.69.45L171,59.16q.16.36.39.36t.39-.36l5.94-14.32a.66.66,0,0,1,.69-.45h2.86A.54.54,0,0,1,181.66,44.55Z"/><path class="ab25665e-4b12-46fb-a11d-299804e7ce0e" d="M198.64,61.65a1.52,1.52,0,0,0,.94.7q.45.16.45.48a.6.6,0,0,1-.09.27l-.77,1.56a.57.57,0,0,1-.73.36,3.07,3.07,0,0,1-2.22-1.58c-.09-.21-.18-.31-.27-.31s-.2.07-.31.22c-1,1.17-2.53,1.75-4.69,1.75a6.41,6.41,0,0,1-3.18-.69,4.19,4.19,0,0,1-1.71-1.68,4.25,4.25,0,0,1-.5-1.9,4.3,4.3,0,0,1,.93-2.7,4.93,4.93,0,0,1,2.79-1.66,24.07,24.07,0,0,1,3.56-.47c1-.08,1.78-.15,2.25-.23a.53.53,0,0,0,.5-.66,3.6,3.6,0,0,0-.82-2,2.92,2.92,0,0,0-2.27-.77,4.7,4.7,0,0,0-1.95.43,2.93,2.93,0,0,0-1.43,1.49q-.26.53-.72.36l-1.7-.47c-.29-.1-.44-.25-.44-.48a1.13,1.13,0,0,1,.05-.24,5.44,5.44,0,0,1,2.2-2.57,7.34,7.34,0,0,1,4-1,6.57,6.57,0,0,1,4.05,1.24,4.46,4.46,0,0,1,1.78,3.56c0,.74,0,1.73,0,3s0,2.14,0,2.69A3.65,3.65,0,0,0,198.64,61.65Zm-5.57.7a3.89,3.89,0,0,0,1.61-1.26,4.6,4.6,0,0,0,.88-2.43v0a.55.55,0,0,0-.17-.43.45.45,0,0,0-.44-.1l-1.09.11c-1.2.11-2.17.24-2.92.37a5.16,5.16,0,0,0-1.92.73,1.62,1.62,0,0,0-.79,1.45,1.54,1.54,0,0,0,1,1.56,5.58,5.58,0,0,0,2.19.41A4.48,4.48,0,0,0,193.07,62.35Z"/><path class="ab25665e-4b12-46fb-a11d-299804e7ce0e" d="M205.81,50.35a.54.54,0,0,1,.16.43v.83A.7.7,0,0,0,206,52a.19.19,0,0,0,.18.12.52.52,0,0,0,.39-.25A5.39,5.39,0,0,1,210.38,50h.06a.53.53,0,0,1,.41.15.62.62,0,0,1,.14.41v1.91c0,.39-.11.58-.33.58l-.34,0a4.89,4.89,0,0,0-1.9.41,4.52,4.52,0,0,0-1.63,1.2,3.23,3.23,0,0,0-.82,1.75v7.77a.56.56,0,0,1-.16.43.58.58,0,0,1-.43.15h-1.8a.58.58,0,0,1-.43-.15.59.59,0,0,1-.15-.43V50.78a.52.52,0,0,1,.58-.58h1.8A.58.58,0,0,1,205.81,50.35Z"/><path class="ab25665e-4b12-46fb-a11d-299804e7ce0e" d="M215,47.81h-.72a.57.57,0,0,1-.36-.1.3.3,0,0,1-.14-.26.92.92,0,0,1,.11-.34l2-3.36a.78.78,0,0,1,.72-.38h2a.64.64,0,0,1,.36.09.31.31,0,0,1,.14.24.78.78,0,0,1-.2.39l-3.22,3.41A.86.86,0,0,1,215,47.81Zm1.71,16.78a.59.59,0,0,1-.43.15h-1.81a.52.52,0,0,1-.58-.58V50.78a.58.58,0,0,1,.15-.43.59.59,0,0,1,.43-.15h1.81a.59.59,0,0,1,.43.15.58.58,0,0,1,.15.43V64.16A.59.59,0,0,1,216.67,64.59Z"/><path class="ab25665e-4b12-46fb-a11d-299804e7ce0e" d="M232.31,51c1.18.81,1.78,2.28,1.78,4.43v8.69a.6.6,0,0,1-.16.43.58.58,0,0,1-.43.15h-1.8a.58.58,0,0,1-.43-.15.59.59,0,0,1-.15-.43V55.94a4.06,4.06,0,0,0-.88-2.5,2.58,2.58,0,0,0-2-.91,3.62,3.62,0,0,0-1.76.48A4.27,4.27,0,0,0,225,54.48a5.57,5.57,0,0,0-.72,2.46v7.22a.52.52,0,0,1-.58.58h-1.81a.61.61,0,0,1-.43-.15.59.59,0,0,1-.15-.43V50.78a.58.58,0,0,1,.15-.43.61.61,0,0,1,.43-.15h1.81a.59.59,0,0,1,.43.15.58.58,0,0,1,.15.43v.33a.46.46,0,0,0,.07.29.21.21,0,0,0,.18.1,1,1,0,0,0,.58-.31,6.51,6.51,0,0,1,1.68-1,4.44,4.44,0,0,1,1.71-.37A6.76,6.76,0,0,1,232.31,51Z"/><path class="ab25665e-4b12-46fb-a11d-299804e7ce0e" d="M38,52.62s0,0,0,0l-.18.11h0l-.13.07-.11.06-.32.16a6.08,6.08,0,0,1-1.92.53l-.21,0-.28,0h-.54l-.2,0H33.9a6,6,0,0,1-1.79-.47l-.07,0L31.92,53,31.8,53l-.12-.06-.15-.08-.21-.12-.16-.1h0l-.24-.16-.22-.17a6.56,6.56,0,0,1-1.62-1.81l-1.16-2c-.68-1.16-2.41-4.12-3.83-6.72l0,0,0,0-.15-.29-.09-.16-.2-.37h0s-.05-.1-.08-.14l-.06-.12-.15-.26a6.89,6.89,0,0,0-2.53-2.58l0,0-.13-.07-.36-.19-.21-.09h5.15a6.51,6.51,0,0,1,5.05,2.48,2.46,2.46,0,0,1,.21.29l1,1.74,2.81,5,.07.13.08.15.14.24a.08.08,0,0,1,0,0c.83,1.46,1.5,2.66,1.71,3A7.28,7.28,0,0,0,38,52.62Z"/><path class="ab25665e-4b12-46fb-a11d-299804e7ce0e" d="M53.15,54.51a4.59,4.59,0,0,0-1.9,1.88A4.11,4.11,0,0,0,51,57a4.76,4.76,0,0,0-.28,1.14,5.07,5.07,0,0,0,0,.55V69.9a.69.69,0,0,1-.27.59c-.45.27-1.42-.15-1.73-.31h0a6.58,6.58,0,0,1-2.48-2.64l-.47-.88-.16-8a4.18,4.18,0,0,1,4.18-4.18Z"/><path class="ab25665e-4b12-46fb-a11d-299804e7ce0e" d="M18.66,70.45c-.07,0-.27-.16-.27-.68V54.7h.95a4.73,4.73,0,0,0,4.19-2.56V66.52l-.55,1a7.31,7.31,0,0,1-2.37,2.57C20.23,70.27,19.15,70.75,18.66,70.45Z"/><path class="ab25665e-4b12-46fb-a11d-299804e7ce0e" d="M45.55,56.47V42.1l.63-1.17a6.45,6.45,0,0,1,2.71-2.77h0l.47-.23h0a1.56,1.56,0,0,1,1.05,0c.06,0,.26.16.27.63h0V54h-1A4.73,4.73,0,0,0,45.55,56.47Z"/><path class="ab25665e-4b12-46fb-a11d-299804e7ce0e" d="M34.27,61.52l-3.79,6.71A6.63,6.63,0,0,1,25.21,71H20l.25-.12c.16-.07.51-.26.52-.27h0l0,0a7,7,0,0,0,2.61-2.79l.06-.12.28-.51c.09-.17.18-.34.28-.51,2.06-3.76,5-8.61,5-8.68a6.51,6.51,0,0,1,1.6-1.8,6.74,6.74,0,0,1,1.7,2Z"/><path class="ab25665e-4b12-46fb-a11d-299804e7ce0e" d="M45,71H44a6.64,6.64,0,0,1-5.27-2.77L34.9,61.52l-.16-.29c-.05-.09-.1-.19-.16-.28-.82-1.46-1.5-2.66-1.7-3a7.33,7.33,0,0,0-1.72-2.06h0c.06-.05.14-.09.23-.15l.17-.09.12-.07.16-.07L32,55.4a5.93,5.93,0,0,1,2-.53h.87a5.92,5.92,0,0,1,2.39.58.84.84,0,0,1,.14.06l.25.14.14.07.24.15h0l.24.16.23.17A6.62,6.62,0,0,1,40.08,58c0,.06,2.86,4.79,4.92,8.53l.16.29a2.12,2.12,0,0,1,.11.21l.18.32.1.18.15.28,0,.07a7.19,7.19,0,0,0,2.64,2.76l.35.19.17.08.24.11H45Z"/><path class="ab25665e-4b12-46fb-a11d-299804e7ce0e" d="M37.77,55.7l.23.15h0ZM32,55.4a6.43,6.43,0,0,1,2-.53A5.93,5.93,0,0,0,32,55.4Zm5.78.3.23.15h0ZM32,55.4a6.43,6.43,0,0,1,2-.53A5.93,5.93,0,0,0,32,55.4Zm5.78.3.23.15h0ZM32,55.4a6.43,6.43,0,0,1,2-.53A5.93,5.93,0,0,0,32,55.4Zm5.78.3.23.15h0ZM32,55.4a6.43,6.43,0,0,1,2-.53A5.93,5.93,0,0,0,32,55.4Zm5.78.3.23.15h0ZM32,55.4a6.43,6.43,0,0,1,2-.53A5.93,5.93,0,0,0,32,55.4Zm5.78.3.23.15h0ZM32,55.4a6.43,6.43,0,0,1,2-.53A5.93,5.93,0,0,0,32,55.4Zm0,0a6.43,6.43,0,0,1,2-.53A5.93,5.93,0,0,0,32,55.4Zm5.78.3.23.15h0ZM32,55.4a6.43,6.43,0,0,1,2-.53A5.93,5.93,0,0,0,32,55.4Zm5.78.3.23.15h0ZM32,55.4a6.43,6.43,0,0,1,2-.53A5.93,5.93,0,0,0,32,55.4Zm5.78.3.23.15h0ZM32,55.4a6.43,6.43,0,0,1,2-.53A5.93,5.93,0,0,0,32,55.4Zm5.78.3.23.15h0ZM32,55.4a6.43,6.43,0,0,1,2-.53A5.93,5.93,0,0,0,32,55.4Zm5.78.3.23.15h0ZM32,55.4a6.43,6.43,0,0,1,2-.53A5.93,5.93,0,0,0,32,55.4Zm5.78.3.23.15h0ZM32,55.4a6.43,6.43,0,0,1,2-.53A5.93,5.93,0,0,0,32,55.4Zm5.78.3.23.15h0ZM32,55.4a6.43,6.43,0,0,1,2-.53A5.93,5.93,0,0,0,32,55.4Zm5.78.3.23.15h0Z"/><path class="ab25665e-4b12-46fb-a11d-299804e7ce0e" d="M49.13,37.46h0a5,5,0,0,0-.57.28l-.27.15a6.9,6.9,0,0,0-2.57,2.77l-.15.27c-.09.17-.18.34-.28.51L45,42c-2.06,3.74-4.89,8.47-4.92,8.54a6.66,6.66,0,0,1-1.61,1.8,6.88,6.88,0,0,1-1.7-2l-1.72-3.08L34.9,47c1.68-3,3.76-6.66,3.78-6.71A6.65,6.65,0,0,1,44,37.46Z"/><path class="ab25665e-4b12-46fb-a11d-299804e7ce0e" d="M23,40.93l.37.68L23.52,50a4.18,4.18,0,0,1-4.18,4.18H15.91a4.57,4.57,0,0,0,1.92-1.9,3.81,3.81,0,0,0,.28-.62,4.81,4.81,0,0,0,.28-1.26c0-.13,0-.26,0-.39V37.83a4.71,4.71,0,0,1,1.39.11,3.81,3.81,0,0,1,.7.35A6.43,6.43,0,0,1,23,40.93Z"/></svg>