<svg width="49" height="49" viewBox="0 0 49 49" fill="none" xmlns="http://www.w3.org/2000/svg">
<path d="M46.1645 14.9467L45.9605 14.4862L45.617 14.8597C44.8032 15.7899 43.7699 16.5019 42.611 16.9312L42.2885 17.0557L42.422 17.3677C43.4161 19.7488 43.9261 22.304 43.922 24.8842C43.922 35.6962 35.132 44.4937 24.3125 44.4937C13.493 44.4937 4.71051 35.7037 4.71051 24.8917C4.71051 14.0797 13.517 5.28224 24.32 5.28224C27.2585 5.28224 30.086 5.91674 32.7185 7.17374L33.0305 7.32224L33.164 7.01624C33.6479 5.87936 34.4073 4.88083 35.3735 4.11074L35.765 3.79124L35.3195 3.55724C31.9201 1.79902 28.1472 0.88526 24.32 0.89324C11.0855 0.89324 0.320007 11.6587 0.320007 24.8932C0.320007 38.1352 11.0855 48.8932 24.32 48.8932C37.562 48.8932 48.32 38.1352 48.32 24.8932C48.32 21.4327 47.6015 18.0892 46.1645 14.9467ZM24.32 13.9552C21.4199 13.958 18.6394 15.1113 16.5887 17.162C14.5381 19.2126 13.3848 21.9932 13.382 24.8932C13.3848 27.7933 14.5381 30.5738 16.5887 32.6245C18.6394 34.6752 21.4199 35.8285 24.32 35.8312C27.2201 35.8285 30.0006 34.6752 32.0513 32.6245C34.1019 30.5738 35.2552 27.7933 35.258 24.8932C35.2552 21.9932 34.1019 19.2126 32.0513 17.162C30.0006 15.1113 27.2201 13.958 24.32 13.9552ZM45.008 9.93974C45.0084 10.5945 44.8798 11.2429 44.6294 11.8479C44.3791 12.4529 44.012 13.0027 43.549 13.4657C43.0861 13.9288 42.5365 14.2961 41.9316 14.5466C41.3266 14.7971 40.6783 14.9259 40.0235 14.9257C39.3681 14.9267 38.7189 14.7985 38.1131 14.5484C37.5074 14.2982 36.9568 13.9311 36.493 13.468C36.0292 13.0049 35.6613 12.455 35.4103 11.8495C35.1592 11.2441 35.03 10.5951 35.03 9.93974C35.03 3.29174 45.008 3.29174 45.008 9.93974Z" fill="white"/>
</svg>
