<svg width="48" height="48" viewBox="0 0 48 48" fill="none" xmlns="http://www.w3.org/2000/svg">
<path d="M0 0H48V48H0V0ZM44.068 36.552C43.718 34.362 42.292 32.522 38.062 30.806C36.59 30.116 34.954 29.636 34.468 28.526C34.286 27.866 34.258 27.506 34.376 27.116C34.676 25.824 36.206 25.436 37.406 25.796C38.186 26.036 38.906 26.636 39.358 27.596C41.426 26.244 41.426 26.244 42.868 25.346C42.328 24.506 42.06 24.144 41.696 23.786C40.436 22.376 38.758 21.656 36.028 21.718L34.618 21.896C33.266 22.226 31.978 22.946 31.198 23.906C28.918 26.488 29.576 30.988 32.336 32.848C35.066 34.888 39.058 35.336 39.568 37.258C40.048 39.598 37.828 40.348 35.636 40.078C34.014 39.718 33.116 38.906 32.126 37.406L28.466 39.508C28.886 40.468 29.366 40.886 30.086 41.726C33.566 45.238 42.266 45.058 43.828 39.718C43.886 39.538 44.308 38.308 43.976 36.418L44.068 36.552ZM26.102 22.062H21.606C21.606 25.938 21.588 29.79 21.588 33.672C21.588 36.136 21.714 38.398 21.312 39.094C20.652 40.472 18.952 40.296 18.18 40.054C17.388 39.662 16.986 39.122 16.52 38.344C16.394 38.134 16.3 37.952 16.266 37.952L12.616 40.202C13.226 41.462 14.116 42.546 15.264 43.236C16.974 44.256 19.272 44.586 21.678 44.046C23.244 43.594 24.594 42.664 25.3 41.224C26.32 39.364 26.104 37.084 26.094 34.532C26.118 30.424 26.094 26.314 26.094 22.174L26.102 22.062Z" fill="white"/>
</svg>
