<svg id="ea8096f5-f678-46ae-8983-1dcb9084e669" data-name="Capa 1" xmlns="http://www.w3.org/2000/svg" viewBox="0 0 71.96 63.53"><defs><style>.b9ace886-e9b2-4c04-9768-4636816d5eb6{fill:#fff;}</style></defs><path class="b9ace886-e9b2-4c04-9768-4636816d5eb6" d="M41.75,28.9l0,0-.22.14h0l-.17.09-.14.08-.41.2a7.66,7.66,0,0,1-2.47.69l-.27,0-.37,0h-.7l-.24,0-.24,0a7.32,7.32,0,0,1-2.31-.6l-.08,0-.17-.07-.15-.07-.15-.07-.2-.11L33.13,29l-.2-.12h0a2.11,2.11,0,0,1-.31-.21l-.29-.22a8.24,8.24,0,0,1-2.08-2.33s-.6-1-1.49-2.52-3.12-5.32-5-8.66l0,0,0,0-.21-.37c0-.07-.07-.14-.1-.2l-.26-.48h0l-.1-.19L23,13.49c-.06-.11-.12-.23-.18-.33a8.87,8.87,0,0,0-3.27-3.33l0,0-.17-.1-.47-.24-.27-.12h6.64a8.41,8.41,0,0,1,6.51,3.2c.17.22.27.37.27.37l1.27,2.25,3.62,6.42.1.17.1.19.19.32a.05.05,0,0,0,0,0l2.2,3.92A9.47,9.47,0,0,0,41.75,28.9Z"/><path class="b9ace886-e9b2-4c04-9768-4636816d5eb6" d="M61.28,31.33a6,6,0,0,0-2.46,2.42,4.93,4.93,0,0,0-.36.77A6,6,0,0,0,58.11,36a5.52,5.52,0,0,0,0,.71V51.17a.88.88,0,0,1-.35.76c-.58.34-1.83-.19-2.22-.41h0a8.41,8.41,0,0,1-3.2-3.4c-.19-.37-.39-.74-.61-1.13l-.21-10.29a5.39,5.39,0,0,1,5.39-5.38Z"/><path class="b9ace886-e9b2-4c04-9768-4636816d5eb6" d="M16.82,51.88c-.09-.06-.36-.22-.36-.89V31.57h1.23a6.09,6.09,0,0,0,5.41-3.29V46.81c-.25.46-.49.89-.71,1.32a9.57,9.57,0,0,1-3.06,3.31C18.83,51.64,17.45,52.26,16.82,51.88Z"/><path class="b9ace886-e9b2-4c04-9768-4636816d5eb6" d="M51.47,33.86V15.33c.29-.52.57-1,.82-1.51a8.31,8.31,0,0,1,3.5-3.56h0l.61-.3h0a1.91,1.91,0,0,1,1.34,0c.09,0,.34.2.35.81h0V30.61H56.86A6.12,6.12,0,0,0,51.47,33.86Z"/><path class="b9ace886-e9b2-4c04-9768-4636816d5eb6" d="M36.93,40.36C34.77,44.19,32.09,49,32.05,49a8.53,8.53,0,0,1-6.79,3.59H18.59l.33-.15c.21-.1.66-.35.67-.36h0l0,0A9,9,0,0,0,23,48.46l.09-.16.36-.66.35-.65c2.66-4.84,6.4-11.1,6.44-11.19a8.53,8.53,0,0,1,2.08-2.31,8.62,8.62,0,0,1,2.19,2.57C34.8,36.57,35.78,38.3,36.93,40.36Z"/><path class="b9ace886-e9b2-4c04-9768-4636816d5eb6" d="M50.76,52.6H49.42A8.54,8.54,0,0,1,42.64,49c0-.08-2.73-4.83-4.89-8.67L37.54,40l-.2-.36-2.2-3.91a9.47,9.47,0,0,0-2.21-2.67h0c.08-.06.18-.11.29-.18l.22-.12.16-.09.21-.1.18-.08a7.47,7.47,0,0,1,2.58-.68l.24,0h.88a7.67,7.67,0,0,1,3.07.74l.18.09.33.17.18.1a3.38,3.38,0,0,1,.3.18h0l.3.21.3.23a8.49,8.49,0,0,1,2.08,2.33c0,.07,3.68,6.17,6.33,11a3.72,3.72,0,0,1,.21.39l.15.26.23.42.12.23c.07.13.13.25.2.36l0,.09a9.16,9.16,0,0,0,3.4,3.56l.46.24.22.11.3.14H50.76Z"/><path class="b9ace886-e9b2-4c04-9768-4636816d5eb6" d="M41.45,32.87l.3.18h0A3.38,3.38,0,0,0,41.45,32.87ZM34,32.48a8.24,8.24,0,0,1,2.58-.68A7.47,7.47,0,0,0,34,32.48Zm7.46.39.3.18h0A3.38,3.38,0,0,0,41.45,32.87ZM34,32.48a8.24,8.24,0,0,1,2.58-.68A7.47,7.47,0,0,0,34,32.48Zm7.46.39.3.18h0A3.38,3.38,0,0,0,41.45,32.87ZM34,32.48a8.24,8.24,0,0,1,2.58-.68A7.47,7.47,0,0,0,34,32.48Zm7.46.39.3.18h0A3.38,3.38,0,0,0,41.45,32.87ZM34,32.48a8.24,8.24,0,0,1,2.58-.68A7.47,7.47,0,0,0,34,32.48Zm7.46.39.3.18h0A3.38,3.38,0,0,0,41.45,32.87ZM34,32.48a8.24,8.24,0,0,1,2.58-.68A7.47,7.47,0,0,0,34,32.48Zm7.46.39.3.18h0A3.38,3.38,0,0,0,41.45,32.87ZM34,32.48a8.24,8.24,0,0,1,2.58-.68A7.47,7.47,0,0,0,34,32.48Zm0,0a8.24,8.24,0,0,1,2.58-.68A7.47,7.47,0,0,0,34,32.48Zm7.46.39.3.18h0A3.38,3.38,0,0,0,41.45,32.87ZM34,32.48a8.24,8.24,0,0,1,2.58-.68A7.47,7.47,0,0,0,34,32.48Zm7.46.39.3.18h0A3.38,3.38,0,0,0,41.45,32.87ZM34,32.48a8.24,8.24,0,0,1,2.58-.68A7.47,7.47,0,0,0,34,32.48Zm7.46.39.3.18h0A3.38,3.38,0,0,0,41.45,32.87ZM34,32.48a8.24,8.24,0,0,1,2.58-.68A7.47,7.47,0,0,0,34,32.48Zm7.46.39.3.18h0A3.38,3.38,0,0,0,41.45,32.87ZM34,32.48a8.24,8.24,0,0,1,2.58-.68A7.47,7.47,0,0,0,34,32.48Zm7.46.39.3.18h0A3.38,3.38,0,0,0,41.45,32.87ZM34,32.48a8.24,8.24,0,0,1,2.58-.68A7.47,7.47,0,0,0,34,32.48Zm7.46.39.3.18h0A3.38,3.38,0,0,0,41.45,32.87ZM34,32.48a8.24,8.24,0,0,1,2.58-.68A7.47,7.47,0,0,0,34,32.48Zm7.46.39.3.18h0A3.38,3.38,0,0,0,41.45,32.87ZM34,32.48a8.24,8.24,0,0,1,2.58-.68A7.47,7.47,0,0,0,34,32.48Zm7.46.39.3.18h0A3.38,3.38,0,0,0,41.45,32.87Z"/><path class="b9ace886-e9b2-4c04-9768-4636816d5eb6" d="M56.09,9.35h0c-.24.11-.49.23-.73.36l-.35.2a8.93,8.93,0,0,0-3.31,3.56l-.2.36c-.11.22-.23.44-.35.66s-.23.43-.36.64c-2.65,4.82-6.29,10.92-6.34,11a8.34,8.34,0,0,1-2.07,2.32,8.9,8.9,0,0,1-2.19-2.57l-2.22-4-.19-.34,4.88-8.66a8.56,8.56,0,0,1,6.79-3.58Z"/><path class="b9ace886-e9b2-4c04-9768-4636816d5eb6" d="M22.39,13.82c.15.29.3.58.47.88l.22,10.77a5.4,5.4,0,0,1-5.39,5.39H13.28a6,6,0,0,0,2.47-2.46A6,6,0,0,0,16.46,26a4.26,4.26,0,0,0,0-.51V9.83a6,6,0,0,1,1.79.14,4.45,4.45,0,0,1,.9.45A8.27,8.27,0,0,1,22.39,13.82Z"/></svg>