<svg width="50" height="49" viewBox="0 0 50 49" fill="none" xmlns="http://www.w3.org/2000/svg">
<path fill-rule="evenodd" clip-rule="evenodd" d="M25 0.893311C11.4046 0.893311 0.392944 11.905 0.392944 25.5004C0.392944 36.389 7.43671 45.5859 17.218 48.8463C18.4484 49.0616 18.9097 48.3234 18.9097 47.6775C18.9097 47.0931 18.879 45.1552 18.879 43.0944C12.6965 44.2325 11.097 41.5872 10.6049 40.2031C10.328 39.4956 9.12845 37.3117 8.08265 36.7273C7.2214 36.2659 5.99105 35.1279 8.05189 35.0971C9.98969 35.0664 11.3738 36.8811 11.8352 37.6193C14.0499 41.3412 17.5871 40.2954 19.002 39.6494C19.2173 38.05 19.8633 36.9734 20.5707 36.3582C15.0957 35.743 9.37452 33.6207 9.37452 24.2085C9.37452 21.5325 10.328 19.3178 11.8967 17.5953C11.6507 16.9802 10.7894 14.4579 12.1428 11.0745C12.1428 11.0745 14.2037 10.4285 18.9097 13.5967C20.8783 13.043 22.9699 12.7662 25.0615 12.7662C27.1531 12.7662 29.2447 13.043 31.2133 13.5967C35.9194 10.3978 37.9802 11.0745 37.9802 11.0745C39.3336 14.4579 38.4724 16.9802 38.2263 17.5953C39.795 19.3178 40.7485 21.5017 40.7485 24.2085C40.7485 33.6514 34.9966 35.743 29.5215 36.3582C30.4135 37.1272 31.1825 38.6036 31.1825 40.9105C31.1825 44.2017 31.1518 46.847 31.1518 47.6775C31.1518 48.3234 31.6131 49.0924 32.8435 48.8463C37.7284 47.1971 41.9731 44.0575 44.9802 39.8696C47.9874 35.6816 49.6056 30.6561 49.607 25.5004C49.607 11.905 38.5954 0.893311 25 0.893311Z" fill="white"/>
</svg>
