<svg width="49" height="48" viewBox="0 0 49 48" fill="none" xmlns="http://www.w3.org/2000/svg">
<path d="M47.358 1.75454e-06H1.64C1.33747 0.000531581 1.04751 0.121083 0.833778 0.335192C0.620044 0.549301 0.500001 0.839471 0.500002 1.142V46.86C0.499738 47.01 0.529097 47.1587 0.586395 47.2973C0.643692 47.436 0.727801 47.562 0.833898 47.6681C0.939995 47.7742 1.06599 47.8583 1.20467 47.9156C1.34334 47.9729 1.49196 48.0023 1.642 48.002H47.36C47.51 48.002 47.6585 47.9725 47.797 47.9151C47.9356 47.8577 48.0615 47.7736 48.1675 47.6675C48.2736 47.5615 48.3577 47.4356 48.4151 47.297C48.4725 47.1585 48.502 47.01 48.502 46.86V1.14C48.5017 0.990032 48.4719 0.841583 48.4143 0.703129C48.3567 0.564676 48.2723 0.43893 48.1661 0.333071C48.0599 0.227212 47.9338 0.143314 47.7952 0.0861655C47.6565 0.0290173 47.508 -0.000261119 47.358 1.75454e-06ZM29.072 25.652H23.358V43.428H18.786V25.652H13.072V21.714H29.072V25.652ZM30.352 42.412V37.662C30.352 37.662 32.948 39.618 36.062 39.618C39.176 39.618 39.056 37.582 39.056 37.302C39.056 34.348 30.232 34.348 30.232 27.8C30.232 18.896 43.09 22.41 43.09 22.41L42.93 26.642C42.93 26.642 40.774 25.204 38.338 25.204C35.902 25.204 35.024 26.364 35.024 27.6C35.024 30.794 43.928 30.476 43.928 36.904C43.928 46.804 30.352 42.414 30.352 42.414V42.412Z" fill="white"/>
</svg>
