<svg width="44" height="48" viewBox="0 0 44 48" fill="none" xmlns="http://www.w3.org/2000/svg">
<path d="M21.9905 48C21.3523 48 20.7046 47.8286 20.1427 47.5047L14.2659 44.0282C13.3896 43.5329 13.8182 43.3614 14.104 43.2662C15.2755 42.8566 15.5137 42.7709 16.7614 42.0566C16.8947 41.9804 17.0662 42.0089 17.1995 42.0947L21.7143 44.7711C21.8762 44.8664 22.1048 44.8664 22.2572 44.7711L39.8494 34.6177C40.0113 34.5225 40.1161 34.332 40.1161 34.1415V13.8347C40.1161 13.6347 40.0113 13.4537 39.8399 13.3489L22.2572 3.20508C22.0953 3.10983 21.8762 3.10983 21.7143 3.20508L4.1411 13.3585C3.96965 13.4537 3.86488 13.6442 3.86488 13.8442V34.1415C3.86488 34.332 3.96965 34.5225 4.1411 34.6082L8.96062 37.3894C11.5799 38.6943 13.1801 37.1608 13.1801 35.6083V15.5682C13.1801 15.2825 13.4087 15.0634 13.6944 15.0634H15.9232C16.1994 15.0634 16.4376 15.2825 16.4376 15.5682V35.6178C16.4376 39.1039 14.5326 41.1041 11.2275 41.1041C10.2084 41.1041 9.40829 41.1041 7.17949 39.9992L2.56951 37.3418C1.42654 36.6846 0.72171 35.4559 0.72171 34.132V13.8347C0.72171 12.5203 1.42654 11.2821 2.56951 10.6249L20.1427 0.471475C21.2571 -0.157158 22.7334 -0.157158 23.8383 0.471475L41.4305 10.6344C42.5735 11.2916 43.2783 12.5203 43.2783 13.8442V34.1415C43.2783 35.4559 42.5735 36.6846 41.4305 37.3513L23.8383 47.5047C23.2763 47.8286 22.6382 48 21.9905 48ZM36.1919 27.9885C36.1919 24.1881 33.6202 23.1785 28.2197 22.4641C22.7525 21.7403 22.2 21.3688 22.2 20.0925C22.2 19.0352 22.6667 17.6256 26.7148 17.6256C30.3246 17.6256 31.6581 18.4066 32.2105 20.8449C32.2582 21.0735 32.4677 21.245 32.7058 21.245H34.9918C35.1346 21.245 35.268 21.1878 35.3632 21.083C35.4585 20.9783 35.5061 20.8354 35.4966 20.6925C35.1442 16.4921 32.3534 14.5395 26.7148 14.5395C21.6952 14.5395 18.7044 16.654 18.7044 20.2068C18.7044 24.0548 21.6857 25.1215 26.4957 25.5978C32.2582 26.1597 32.7058 27.0074 32.7058 28.1409C32.7058 30.103 31.1247 30.9412 27.4196 30.9412C22.762 30.9412 21.7428 29.7696 21.4 27.4551C21.3619 27.2075 21.1523 27.0265 20.8951 27.0265H18.6187C18.333 27.0265 18.1139 27.2551 18.1139 27.5313C18.1139 30.4935 19.7236 34.0272 27.4291 34.0272C32.9916 34.0177 36.1919 31.8174 36.1919 27.9885Z" fill="white"/>
</svg>
